<svg id="svg" version="1.1" xmlns="http://www.w3.org/2000/svg" xmlns:xlink="http://www.w3.org/1999/xlink" width="400" height="400" viewBox="0, 0, 400,400"><g id="svgg"><path id="path0" d="M158.000 3.106 C 9.959 34.851,-50.927 214.017,46.777 330.400 C 115.243 411.955,242.113 423.821,326.075 356.521 C 432.983 270.829,422.102 98.745,305.323 28.339 C 263.976 3.411,204.267 -6.816,158.000 3.106 M223.518 151.134 C 275.061 176.819,257.415 254.000,200.000 254.000 C 141.185 254.000,125.014 174.242,178.869 149.781 C 191.316 144.128,210.633 144.713,223.518 151.134 M116.583 217.631 C 122.471 267.342,180.901 301.456,230.577 284.187 C 261.138 273.563,288.000 240.583,288.000 213.687 L 288.000 208.000 331.000 208.000 L 374.000 208.000 373.986 216.500 C 373.827 313.104,262.352 393.954,162.364 369.984 C 91.153 352.912,30.122 282.136,30.014 216.500 L 30.000 208.000 72.721 208.000 L 115.443 208.000 116.583 217.631 " stroke="none" fill="#000000" fill-rule="evenodd"></path></g></svg>